REM DIRINDEX 1\2\6,1\2\7,1\2\8,1\2\9,1\3\10,1\3\11,1\4\12,1\4\13,1\4\14,1\5\15,1\5\16,1\5\17
REM DIRNAME folder01,folder02,folder03,folder04,folder05,folder06,folder07,folder08,folder09,folder10,folder11,folder12,folder13,folder14,folder15,folder16,folder17
TITLE ""
FILE "1900_2_sec05_0447_0464.mp3" MP3
  TRACK 01 AUDIO
    TITLE "0:"
    INDEX 01 00:00:00
  TRACK 02 AUDIO
    TITLE "13:cjc020_2998"
    INDEX 01 00:00:17
  TRACK 03 AUDIO
    TITLE "0:"
    INDEX 01 00:01:15
  TRACK 04 AUDIO
    TITLE "14:cjc020_2999"
    INDEX 01 00:01:19
  TRACK 05 AUDIO
    TITLE "0:"
    INDEX 01 00:02:30
  TRACK 06 AUDIO
    TITLE "13:cjc020_3000"
    INDEX 01 00:03:12
  TRACK 07 AUDIO
    TITLE "0:"
    INDEX 01 00:04:27
  TRACK 08 AUDIO
    TITLE "14:cjc020_3001"
    INDEX 01 00:04:31
  TRACK 09 AUDIO
    TITLE "0:"
    INDEX 01 00:06:28
  TRACK 10 AUDIO
    TITLE "13:cjc020_3002"
    INDEX 01 00:07:05
  TRACK 11 AUDIO
    TITLE "0:"
    INDEX 01 00:08:15
  TRACK 12 AUDIO
    TITLE "14:cjc020_3003"
    INDEX 01 00:08:21
  TRACK 13 AUDIO
    TITLE "0:"
    INDEX 01 00:12:16
  TRACK 14 AUDIO
    TITLE "13:cjc020_3004"
    INDEX 01 00:12:69
  TRACK 15 AUDIO
    TITLE "0:"
    INDEX 01 00:14:11
  TRACK 16 AUDIO
    TITLE "14:cjc020_3005"
    INDEX 01 00:14:13
  TRACK 17 AUDIO
    TITLE "0:"
    INDEX 01 00:16:61
  TRACK 18 AUDIO
    TITLE "13:cjc020_3006"
    INDEX 01 00:17:37
  TRACK 19 AUDIO
    TITLE "0:"
    INDEX 01 00:18:54
  TRACK 20 AUDIO
    TITLE "14:cjc020_3007"
    INDEX 01 00:18:56
  TRACK 21 AUDIO
    TITLE "0:"
    INDEX 01 00:21:72
  TRACK 22 AUDIO
    TITLE "13:cjc020_3008"
    INDEX 01 00:22:52
  TRACK 23 AUDIO
    TITLE "0:"
    INDEX 01 00:24:04
  TRACK 24 AUDIO
    TITLE "14:cjc020_3009"
    INDEX 01 00:24:06
  TRACK 25 AUDIO
    TITLE "0:"
    INDEX 01 00:25:72
  TRACK 26 AUDIO
    TITLE "13:cjc020_3010"
    INDEX 01 00:26:52
  TRACK 27 AUDIO
    TITLE "0:"
    INDEX 01 00:28:00
  TRACK 28 AUDIO
    TITLE "14:cjc020_3011"
    INDEX 01 00:28:04
  TRACK 29 AUDIO
    TITLE "0:"
    INDEX 01 00:30:48
  TRACK 30 AUDIO
    TITLE "13:cjc020_3012"
    INDEX 01 00:31:24
  TRACK 31 AUDIO
    TITLE "0:"
    INDEX 01 00:32:25
  TRACK 32 AUDIO
    TITLE "14:cjc020_3013"
    INDEX 01 00:32:31
  TRACK 33 AUDIO
    TITLE "0:"
    INDEX 01 00:34:24
  TRACK 34 AUDIO
    TITLE "13:cjc020_3014"
    INDEX 01 00:35:04
  TRACK 35 AUDIO
    TITLE "0:"
    INDEX 01 00:36:15
  TRACK 36 AUDIO
    TITLE "14:cjc020_3015"
    INDEX 01 00:36:23
  TRACK 37 AUDIO
    TITLE "0:"
    INDEX 01 00:37:30
  TRACK 38 AUDIO
    TITLE "13:cjc020_3016"
    INDEX 01 00:38:10
  TRACK 39 AUDIO
    TITLE "0:"
    INDEX 01 00:39:15
  TRACK 40 AUDIO
    TITLE "14:cjc020_3017"
    INDEX 01 00:39:21
  TRACK 41 AUDIO
    TITLE "0:"
    INDEX 01 00:43:01
  TRACK 42 AUDIO
    TITLE "13:cjc020_3018"
    INDEX 01 00:43:58
  TRACK 43 AUDIO
    TITLE "0:"
    INDEX 01 00:44:58
  TRACK 44 AUDIO
    TITLE "14:cjc020_3019"
    INDEX 01 00:44:61
  TRACK 45 AUDIO
    TITLE "0:"
    INDEX 01 00:47:27
  TRACK 46 AUDIO
    TITLE "13:cjc020_3020"
    INDEX 01 00:48:06
  TRACK 47 AUDIO
    TITLE "0:"
    INDEX 01 00:49:12
  TRACK 48 AUDIO
    TITLE "14:cjc020_3021"
    INDEX 01 00:49:18
  TRACK 49 AUDIO
    TITLE "0:"
    INDEX 01 00:52:00
  TRACK 50 AUDIO
    TITLE "13:cjc020_3022"
    INDEX 01 00:52:57
  TRACK 51 AUDIO
    TITLE "0:"
    INDEX 01 00:53:74
  TRACK 52 AUDIO
    TITLE "14:cjc020_3023"
    INDEX 01 00:54:01
  TRACK 53 AUDIO
    TITLE "0:"
    INDEX 01 00:57:15
  TRACK 54 AUDIO
    TITLE "13:cjc020_3024"
    INDEX 01 00:57:72
  TRACK 55 AUDIO
    TITLE "0:"
    INDEX 01 00:59:24
  TRACK 56 AUDIO
    TITLE "14:cjc020_3025"
    INDEX 01 00:59:28
  TRACK 57 AUDIO
    TITLE "0:"
    INDEX 01 01:02:06
  TRACK 58 AUDIO
    TITLE "13:cjc020_3026"
    INDEX 01 01:02:57
  TRACK 59 AUDIO
    TITLE "0:"
    INDEX 01 01:03:69
  TRACK 60 AUDIO
    TITLE "14:cjc020_3027"
    INDEX 01 01:04:01
  TRACK 61 AUDIO
    TITLE "0:"
    INDEX 01 01:06:16
  TRACK 62 AUDIO
    TITLE "13:cjc020_3028"
    INDEX 01 01:06:69
  TRACK 63 AUDIO
    TITLE "0:"
    INDEX 01 01:08:07
  TRACK 64 AUDIO
    TITLE "14:cjc020_3029"
    INDEX 01 01:08:09
  TRACK 65 AUDIO
    TITLE "0:"
    INDEX 01 01:12:03
  TRACK 66 AUDIO
    TITLE "13:cjc020_3030"
    INDEX 01 01:12:54
  TRACK 67 AUDIO
    TITLE "0:"
    INDEX 01 01:13:63
  TRACK 68 AUDIO
    TITLE "14:cjc020_3031"
    INDEX 01 01:13:65
  TRACK 69 AUDIO
    TITLE "0:"
    INDEX 01 01:16:58
  TRACK 70 AUDIO
    TITLE "13:cjc020_3032"
    INDEX 01 01:17:35
  TRACK 71 AUDIO
    TITLE "0:"
    INDEX 01 01:18:45
  TRACK 72 AUDIO
    TITLE "14:cjc020_3033"
    INDEX 01 01:18:49
  TRACK 73 AUDIO
    TITLE "0:"
    INDEX 01 01:19:36
